<svg id="svg" version="1.1" xmlns="http://www.w3.org/2000/svg" xmlns:xlink="http://www.w3.org/1999/xlink" width="400" height="400" viewBox="0, 0, 400,400"><g id="svgg"><path id="path0" d="M160.600 111.389 C 157.534 112.478,154.789 116.828,154.805 120.573 C 154.808 121.248,154.194 126.210,153.440 131.600 C 151.558 145.059,149.997 156.644,149.775 158.800 C 149.565 160.840,147.357 177.205,145.585 189.859 C 143.718 203.189,143.922 206.256,146.866 209.080 C 149.547 211.652,149.027 211.600,172.187 211.600 C 192.795 211.600,193.200 211.615,193.200 212.385 C 193.200 213.167,192.293 217.341,190.806 223.400 C 190.374 225.160,189.459 229.030,188.774 232.000 C 188.088 234.970,186.923 239.920,186.186 243.000 C 183.560 253.963,182.061 260.271,180.861 265.400 C 180.192 268.260,179.072 272.961,178.372 275.847 C 176.248 284.608,178.974 289.200,186.300 289.200 C 191.351 289.200,192.384 287.954,202.708 269.400 C 203.687 267.640,204.626 266.020,204.793 265.800 C 205.068 265.438,209.984 256.961,212.215 253.000 C 212.711 252.120,214.961 248.250,217.216 244.400 C 219.471 240.550,221.765 236.590,222.315 235.600 C 222.864 234.610,224.885 231.100,226.807 227.800 C 228.728 224.500,232.960 217.210,236.210 211.600 C 239.460 205.990,243.844 198.437,245.951 194.816 C 248.059 191.195,250.057 187.728,250.392 187.111 C 250.726 186.494,252.035 184.185,253.300 181.981 C 257.229 175.133,256.434 170.015,251.008 167.222 L 249.023 166.200 228.511 166.086 C 213.951 166.005,208.000 165.845,208.000 165.533 C 208.000 165.292,209.240 161.383,210.755 156.847 C 217.288 137.289,222.001 122.779,222.399 121.005 C 223.155 117.629,221.438 113.830,218.218 111.760 C 216.623 110.735,163.409 110.392,160.600 111.389 " stroke="none" fill="#fafbfb" fill-rule="evenodd"></path><path id="path1" d="M0.000 200.000 L 0.000 400.000 200.000 400.000 L 400.000 400.000 400.000 200.000 L 400.000 0.000 200.000 0.000 L 0.000 0.000 0.000 200.000 M218.218 111.760 C 221.438 113.830,223.155 117.629,222.399 121.005 C 222.001 122.779,217.288 137.289,210.755 156.847 C 209.240 161.383,208.000 165.292,208.000 165.533 C 208.000 165.845,213.951 166.005,228.511 166.086 L 249.023 166.200 251.008 167.222 C 256.434 170.015,257.229 175.133,253.300 181.981 C 252.035 184.185,250.726 186.494,250.392 187.111 C 250.057 187.728,248.059 191.195,245.951 194.816 C 243.844 198.437,239.460 205.990,236.210 211.600 C 232.960 217.210,228.728 224.500,226.807 227.800 C 224.885 231.100,222.864 234.610,222.315 235.600 C 221.765 236.590,219.471 240.550,217.216 244.400 C 214.961 248.250,212.711 252.120,212.215 253.000 C 209.984 256.961,205.068 265.438,204.793 265.800 C 204.626 266.020,203.687 267.640,202.708 269.400 C 192.384 287.954,191.351 289.200,186.300 289.200 C 178.974 289.200,176.248 284.608,178.372 275.847 C 179.072 272.961,180.192 268.260,180.861 265.400 C 182.061 260.271,183.560 253.963,186.186 243.000 C 186.923 239.920,188.088 234.970,188.774 232.000 C 189.459 229.030,190.374 225.160,190.806 223.400 C 192.293 217.341,193.200 213.167,193.200 212.385 C 193.200 211.615,192.795 211.600,172.187 211.600 C 149.027 211.600,149.547 211.652,146.866 209.080 C 143.922 206.256,143.718 203.189,145.585 189.859 C 147.357 177.205,149.565 160.840,149.775 158.800 C 149.997 156.644,151.558 145.059,153.440 131.600 C 154.194 126.210,154.808 121.248,154.805 120.573 C 154.789 116.828,157.534 112.478,160.600 111.389 C 163.409 110.392,216.623 110.735,218.218 111.760 " stroke="none" fill="#047c8c" fill-rule="evenodd"></path></g></svg>