<svg height="465" viewBox="0 0 659 465" width="659" xmlns="http://www.w3.org/2000/svg"><g fill="none" fill-rule="evenodd" transform="translate(-8)"><path d="m13.2 318.771731 290.515404 145.628269 357.484596-179.571731-290.512977-145.628269zm290.526581 148.028269-.613924-.308222-294.712657-147.726912 1.8441987-.926776 360.4292203-181.03809.613924.308222 294.712657 147.726912-1.846625.926776z" fill="#007bd4" transform="matrix(.99862953 .05233596 -.05233596 .99862953 16.257112 -17.234078)"/><g transform="translate(152.4)"><path d="m53.8953686 57.6c-.6868934.6512375-1.1219258 1.7692913-1.1219258 3.2821218v15.7680164c0 3.3080561 1.9977148 7.1520864 4.4648067 8.5842326l43.7923125 25.2484212c.792789.458171 1.525475.584961 2.169438.475461-.818548.775145-2.003439.890409-3.3428809.112381l-43.7923124-25.2455389c-2.4670919-1.4321462-4.4648067-5.2761765-4.4648067-8.5842326v-15.7680164c0-2.2476339.9301681-3.639438 2.2953686-3.8728461" fill="#fffffe"/><path d="m85.4206433 93.4806697-4.0441671-2.3573783c-.5415266-.3172275-.9764762-1.1641375-.9764762-1.8917234v-4.3655154c0-.7275859.4349496-1.0622754.9764762-.7479583l4.0441671 2.3602887c.5386462.3143171.9793567 1.1612271.9793567 1.888813v4.3655154c0 .7275859-.4407105 1.0651858-.9793567.7479583" fill="#3b6397"/><path d="m71.0211132 85.0806537-4.0422264-2.3576935c-.5383878-.3172698-.9788868-1.164293-.9788868-1.8919762v-4.3631884c0-.7305939.440499-1.0624174.9788868-.750969l4.0422264 2.3606042c.5412668.3143592.9788868 1.1613824.9788868 1.8890656v4.366099c0 .7276832-.43762 1.0653282-.9788868.7480583" fill="#fffffe"/><path d="m99.9312052 168.661572-43.859544-25.212933c-2.4708794-1.430133-4.4716612-5.26876-4.4716612-8.569289v-15.748731c0-3.303407 2.0007818-4.822743 4.4716612-3.39261l43.859544 25.212933c2.4708798 1.430133 4.4687948 5.26876 4.4687948 8.572167v15.745853c0 3.306284-1.997915 4.822743-4.4687948 3.39261" fill="#263764"/><path d="m53.8953686 115.2c-.6868934.656981-1.1219258 1.77212-1.1219258 3.282025v15.77043c0 3.305077 1.9977148 7.148993 4.4648067 8.581097l43.7923125 25.247673c.792789.458158 1.525475.584944 2.169438.475447-.818548.775122-2.003439.893264-3.3428809.11526l-43.7923124-25.247673c-2.4670919-1.432104-4.4648067-5.27602-4.4648067-8.581097v-15.770431c0-2.244685.9301681-3.63933 2.2953686-3.872731" fill="#fffffe"/><path d="m85.4206433 151.081905-4.0441671-2.3603c-.5415266-.314319-.9764762-1.161233-.9764762-1.888823v-4.362627c0-.7305.4349496-1.068102.9764762-.750873l4.0441671 2.357391c.5386462.317229.9793567 1.164143.9793567 1.891733v4.365537c0 .72759-.4407105 1.062281-.9793567.747962" fill="#3b6397"/><g fill="#fffffe"><path d="m71.0211132 142.68186-4.0422264-2.361204c-.5383878-.314439-.9788868-1.161678-.9788868-1.889546v-4.364297c0-.73078.440499-1.062688.9788868-.748249l4.0422264 2.355382c.5412668.31735.9788868 1.164589.9788868 1.892457v4.367208c0 .727869-.43762 1.062688-.9788868.748249"/><path d="m53.8953686 0c-.6868934.65411176-1.1219258 1.77215299-1.1219258 3.28208498v15.77072092c0 3.3051373 1.9977148 7.1491245 4.4648067 8.5812546l43.7923125 25.2481375c.792789.4581664 1.525475.5849545 2.169438.4754557-.818548.7722552-2.003439.8932803-3.3428809.1152619l-43.7923124-25.2481374c-2.4670919-1.4321302-4.4648067-5.2761173-4.4648067-8.5812547v-15.77072086c0-2.24472712.9301681-3.63939712 2.2953686-3.87280264"/><path d="m71.0211132 29.8818899-4.0422264-2.3606044c-.5383878-.3143592-.9788868-1.1613825-.9788868-1.8890658v-4.3631887c0-.730594.440499-1.0653283.9788868-.7509691l4.0422264 2.3606044c.5412668.3143592.9788868 1.1613825.9788868 1.8890657v4.3660995c0 .7276833-.43762 1.0624176-.9788868.7480584"/></g><path d="m145.265167 69.4395527 4.672459-2.8615974c.695423-.4295358 1.262374-1.5729898 1.262374-2.5594411v-5.2432994c0-.9894136-.566951-1.4396856-1.262374-1.0160744l-4.672459 2.8615973c-.698216.4295358-1.265167 1.5729898-1.265167 2.5594411v5.2462618c0 .9864512.566951 1.4396856 1.265167 1.0131121" fill="#d4eaf2"/><path d="m181.2 65.7924 3.6-1.9848v1.9824z" fill="#87afd1"/><path d="m195.6 67.9417022c0 1.4815817 1.073219 2.0810656 2.4 1.3417021 1.323833-.7393635 2.4-2.5435247 2.4-4.0251065 0-1.4815817-1.076167-2.0810656-2.4-1.3417021-1.326781.7422182-2.4 2.5435247-2.4 4.0251065" fill="#fffffe"/><path d="m187.2 73.9417022c0 1.4815817 1.073219 2.0810656 2.402948 1.3417021 1.323833-.7422182 2.397052-2.5435247 2.397052-4.0251065 0-1.4815817-1.073219-2.0810656-2.397052-1.3417021-1.329729.7393635-2.402948 2.54067-2.402948 4.0251065" fill="#d4eaf2"/><path d="m178.8 79.9411423c0 1.4809635 1.073219 2.0830507 2.397052 1.3411422 1.329729-.7419085 2.402948-2.5424633 2.402948-4.0234268s-1.073219-2.0830507-2.402948-1.3411422c-1.323833.7419085-2.397052 2.5396098-2.397052 4.0234268" fill="#fffffe"/><path d="m145.265167 104.24086 4.672459-2.861598c.695423-.429536 1.262374-1.5729895 1.262374-2.5594408v-5.2462618c0-.9864512-.566951-1.4396856-1.262374-1.0131121l-4.672459 2.8615974c-.698216.4295358-1.265167 1.5729898-1.265167 2.5594411v5.2432992c0 .989414.566951 1.439686 1.265167 1.016075" fill="#d4eaf2"/><path d="m195.6 102.742439c0 1.481833 1.073219 2.081419 2.4 1.339075 1.323833-.736634 2.4-2.541101 2.4-4.022935 0-1.4818329-1.076167-2.0814186-2.4-1.3419296-1.326781.739489-2.4 2.5439566-2.4 4.0257896" fill="#263764"/><path d="m187.2 108.742068c0 1.481255 1.073219 2.080607 2.4 1.341406 1.326781-.742055 2.4-2.542964 2.4-4.027073 0-1.478402-1.073219-2.080607-2.4-1.338553-1.326781.739201-2.4 2.54011-2.4 4.02422" fill="#d4eaf2"/><path d="m178.8 111.139387c0 1.484017 1.073219 2.083331 2.397052 1.344177 1.329729-.742009 2.402948-2.54566 2.402948-4.023969 0-1.484017-1.073219-2.083332-2.402948-1.341323-1.323833.742008-2.397052 2.542806-2.397052 4.021115" fill="#263764"/><path d="m201.6 135.882078c0 2.964641 1.880026 4.164399 4.2 2.683589 2.319974-1.480809 4.2-5.086126 4.2-8.047745 0-2.964641-1.880026-4.164399-4.2-2.683589-2.319974 1.480809-4.2 5.086126-4.2 8.047745" fill="#fffffe"/><path d="m183.6 143.543112c0 1.478836 1.076167 2.081219 2.4 1.338946 1.326781-.739418 2.4-2.540857 2.4-4.025402 0-1.478836-1.073219-2.078365-2.4-1.341801-1.323833.742272-2.4 2.543712-2.4 4.028257" fill="#263764"/><path d="m175.2 148.344083c0 1.479088 1.073219 2.078718 2.4 1.339174 1.323833-.739544 2.4-2.541289 2.4-4.026087 0-1.479088-1.076167-2.081573-2.4-1.339174-1.326781.739543-2.4 2.541289-2.4 4.026087" fill="#d4eaf2"/><path d="m166.8 154.34103c0 1.484579 1.073219 2.081265 2.397052 1.341831 1.326781-.739435 2.402948-2.543769 2.402948-4.022638 0-1.484579-1.076167-2.08412-2.402948-1.341831-1.323833.739435-2.397052 2.543769-2.397052 4.022638" fill="#263764"/><path d="m0 43.9411423c0 1.4809635 1.07616708 2.0830507 2.4029484 1.3411422 1.32383293-.7419085 2.3970516-2.5424633 2.3970516-4.0234268s-1.07321867-2.0830507-2.3970516-1.3411422c-1.32678132.7419085-2.4029484 2.5424633-2.4029484 4.0234268" fill="#fff"/><path d="m16.8 69.1421577c0 1.4820848 1.0761671 2.0817722 2.4029484 1.339302 1.3238329-.7367589 2.3970516-2.5415326 2.3970516-4.0236174s-1.0732187-2.0817722-2.3970516-1.339302c-1.3267813.7367589-2.4029484 2.5415326-2.4029484 4.0236174" fill="#fffffe"/><path d="m30.790276 98.15197 14.019448-8.397716c1.0981806-.6590464 1.990276-2.4223618 1.990276-3.9454913 0-1.5172713-.8920954-2.2202542-1.990276-1.5612077l-14.019448 8.4006451c-1.1010037.6590464-1.990276 2.4223617-1.990276 3.9454912 0 1.5172714.8892723 2.2173251 1.990276 1.5582787" fill="#d4eaf2"/><path d="m16.8 102.742092c0 1.478836 1.0761671 2.081219 2.4029484 1.341801 1.3238329-.742273 2.3970516-2.543712 2.3970516-4.028258 0-1.4788358-1.0732187-2.078364-2.3970516-1.3389459-1.3267813.739418-2.4029484 2.5408569-2.4029484 4.0254029" fill="#fffffe"/><path d="m8.4 108.739245c0 1.484144 1.07321867 2.083509 2.4 1.344292 1.3267813-.742072 2.4-2.543024 2.4-4.024314s-1.0732187-2.083509-2.4-1.341438c-1.32678133.742072-2.4 2.543024-2.4 4.02146" fill="#263764"/><path d="m0 111.140405c0 1.484017 1.07616708 2.083332 2.4029484 1.341323 1.32383293-.739154 2.3970516-2.542806 2.3970516-4.021115 0-1.484017-1.07321867-2.083331-2.3970516-1.344177-1.32678132.742009-2.4029484 2.54566-2.4029484 4.023969" fill="#d4eaf2"/><path d="m30.790276 132.952025 14.019448-8.397496c1.0981806-.659029 1.990276-2.425227 1.990276-3.945387 0-1.520161-.8920954-2.220196-1.990276-1.561167l-14.019448 8.397496c-1.1010037.659029-1.990276 2.425227-1.990276 3.945387 0 1.520161.8892723 2.220196 1.990276 1.561167" fill="#d4eaf2"/><path d="m16.8 137.542438c0 1.478528 1.0761671 2.080785 2.4029484 1.341521 1.3238329-.742118 2.3970516-2.543181 2.3970516-4.027417 0-1.478527-1.0732187-2.080785-2.3970516-1.338667-1.3267813.742118-2.4029484 2.540327-2.4029484 4.024563" fill="#263764"/><path d="m8.4 143.540123c0 1.484269 1.07321867 2.083686 2.4 1.341551 1.3267813-.73928 2.4-2.543237 2.4-4.021797 0-1.484269-1.0732187-2.083686-2.4-1.341551-1.32678133.73928-2.4 2.543237-2.4 4.021797" fill="#263764"/><path d="m0 145.941142c0 1.480964 1.07616708 2.083051 2.4029484 1.341143 1.32383293-.741909 2.3970516-2.542464 2.3970516-4.023427 0-1.480964-1.07321867-2.083051-2.3970516-1.341143-1.32678132.741909-2.4029484 2.542464-2.4029484 4.023427" fill="#d4eaf2"/><path d="m30.790276 167.752025 14.019448-8.397496c1.0981806-.659029 1.990276-2.425227 1.990276-3.945387 0-1.520161-.8920954-2.220196-1.990276-1.561167l-14.019448 8.397496c-1.1010037.659029-1.990276 2.425227-1.990276 3.945387 0 1.520161.8892723 2.220196 1.990276 1.561167" fill="#d4eaf2"/><path d="m16.8 172.339387c0 1.484017 1.0761671 2.083331 2.4029484 1.344177 1.3238329-.742009 2.3970516-2.54566 2.3970516-4.023969 0-1.484017-1.0732187-2.083332-2.3970516-1.341323-1.3267813.742008-2.4029484 2.539952-2.4029484 4.021115" fill="#263764"/><path d="m8.4 177.140405c0 1.484017 1.07321867 2.083332 2.4 1.341323 1.3267813-.742008 2.4-2.542806 2.4-4.021115 0-1.484017-1.0732187-2.083331-2.4-1.344177-1.32678133.742009-2.4 2.542806-2.4 4.023969" fill="#fffffe"/><path d="m0 180.740796c0 1.481273 1.07616708 2.083486 2.4029484 1.341422 1.32383293-.742063 2.3970516-2.54014 2.3970516-4.024266 0-1.481273-1.07321867-2.080632-2.3970516-1.341422-1.32678132.742063-2.4029484 2.542994-2.4029484 4.024266" fill="#d4eaf2"/><path d="m30.790276 201.352005 14.019448-8.398193c1.0981806-.662013 1.990276-2.425429 1.990276-3.948645 0-1.517358-.8920954-2.214522-1.990276-1.558367l-14.019448 8.398193c-1.1010037.659084-1.990276 2.422499-1.990276 3.945715 0 1.520287.8892723 2.220381 1.990276 1.561297" fill="#d4eaf2"/><path d="m16.8 207.140123c0 1.484269 1.0761671 2.083686 2.4029484 1.341551 1.3238329-.73928 2.3970516-2.543237 2.3970516-4.021797 0-1.484269-1.0732187-2.083686-2.3970516-1.341551-1.3267813.73928-2.4029484 2.543237-2.4029484 4.021797" fill="#263764"/><path d="m8.4 209.541142c0 1.480964 1.07321867 2.083051 2.4 1.341143 1.3267813-.741909 2.4-2.542464 2.4-4.023427 0-1.480964-1.0732187-2.083051-2.4-1.341143-1.32678133.741909-2.4 2.542464-2.4 4.023427" fill="#263764"/><path d="m0 215.541702c0 1.481582 1.07616708 2.081066 2.4029484 1.341702 1.32383293-.739363 2.3970516-2.543524 2.3970516-4.025106s-1.07321867-2.081066-2.3970516-1.341702c-1.32678132.742218-2.4029484 2.543524-2.4029484 4.025106" fill="#d4eaf2"/><path d="m30.790276 236.151508 14.019448-8.398898c1.0981806-.65621 1.990276-2.422703 1.990276-3.946047 0-1.517485-.8920954-2.217637-1.990276-1.558498l-14.019448 8.398898c-1.1010037.659139-1.990276 2.425632-1.990276 3.946047 0 1.520414.8892723 2.217637 1.990276 1.558498" fill="#d4eaf2"/><path d="m14.4 242.682858c0 2.961407 1.8827586 4.164101 4.2 2.683398 2.3227066-1.483726 4.2-5.085764 4.2-8.050193 0-2.961407-1.8772934-4.164101-4.2-2.680376-2.3172414 1.480704-4.2 5.082742-4.2 8.047171" fill="#fffffe"/><path d="m.01190517 92.8730426 100.46503383-24.0721966 18.505583-10.7356777c4.248643-2.4659141 11.665814-2.156953 16.56942.687222l17.2646 10.0224683 53.583458-.0317623-15.865622 245.2169697c.120652 1.668967-.80434 3.277298-2.846791 4.461168l-101.7543204 72.032088c-4.2457702 2.463026-10.163952 6.163955-15.067558 3.316892l-66.81773638-38.773179c-2.82955591-1.64298-4.19118992-3.768171-4.03606705-5.748987z" fill="#007bd4"/><path d="m126.326185 55.2c3.121168.0779375 6.360606.863086 8.919272 2.3410126l17.336618 10.019303 53.806979-.0317523v254.6190377c.12404 1.665554-.804811 3.276263-2.855782 4.459759l-116.6082308 66.538448c-2.050971 1.183496-4.8346377 1.717512-7.722151 1.648234l-1.2028902-256.20954z" fill="#00b3ef"/><path d="m85.2 393.667745c-3.6507592 1.575801-8.9336226 1.489218-13.2-.150077v-257.917668h13.2z" fill="#0062a9"/><path d="m87.9355132 136.338311 116.7815738-66.4643606c4.269819-2.4596139 3.73537-6.7617755-1.196011-9.6020096l-67.193317-38.7223383c-4.931381-2.8402341-12.390564-3.1487672-16.663272-.6891533l-116.78157436 66.4672441c-4.26981908 2.4596139-3.73536947 6.7617755 1.19601157 9.6020096l67.19620559 38.7223381c4.931381 2.840234 12.3905643 3.145884 16.6603834.68627" fill="#00b3ef"/><path d="m4.06979365 92.4140453 67.19882555 38.5517397c4.9315733 2.827721 12.3910474 3.137766 16.661033.686117l116.7861278-66.1744102c.953379-.5454487 1.652525-1.1856332 2.132103-1.8774918 1.467627 2.3454294.803151 4.8918136-2.132103 6.5740922l-116.7861278 66.1715398c-4.2699856 2.448777-11.7294597 2.144475-16.661033-.683246l-67.19882555-38.5517403c-3.83085309-2.1990195-4.99802099-5.270757-3.32816196-7.6822144.67025484 1.070802 1.78542022 2.1014129 3.32816196 2.985614" fill="#fcfdfd"/><path d="m84.2651563 109.619511 77.5882767-45.0626458c1.994987-1.1554525 1.744172-3.1688284-.559288-4.503376l-31.377803-18.1492693c-2.300578-1.3345476-5.786039-1.4789792-7.781026-.3264154l-77.5911599 45.0655343c-1.9921042 1.1525638-1.7412893 3.171717.5621712 4.5033759l31.3749198 18.1521583c2.3034606 1.331659 5.7889221 1.47609 7.7839092.320638" fill="#0f2862"/><path d="m127.119894 67.0941003 4.685052-2.6045403c.288496-.1589897.252434-.4393897-.078134-.6243959l-4.525779-2.514928c-.330568-.1821155-.832431-.2023505-1.120927-.0404701l-4.685052 2.6016496c-.288496.1589897-.252434.436499.078134.6215052l4.525779 2.514928c.330568.1850062.832431.2023505 1.120927.0462515" fill="#89c434"/><path d="m109.120668 75.4919459 4.684309-2.6046587c.28845-.1561061.252394-.4365188-.078122-.6215334l-4.52506-2.5150423c-.330516-.1821237-.835303-.2023597-1.123753-.0433628l-4.684309 2.6017679c-.28845.1618877-.249389.4423005.081126.6244242l4.525061 2.5121514c.330515.1879055.832298.2052506 1.120748.0462537" fill="#fff"/><path d="m94.7211246 83.8907876 4.6838708-2.6013747c.2884231-.1618634.2523702-.4393433-.0781146-.62433l-4.5276417-2.5117718c-.3304848-.1849866-.8322208-.2052195-1.1206438-.0462466l-4.6838709 2.6013747c-.2884231.1618633-.2523702.4422337.081119.6243299l4.5246373 2.5117718c.3304848.1878771.8322208.20811 1.1206439.0462467" fill="#fff"/><path d="m80.3211341 92.2929355 4.686661-2.6013747c.2854056-.1618633.2493544-.4422337-.0841196-.6243299l-4.5244304-2.5117718c-.3304697-.1878771-.8321828-.20811-1.1205927-.0462467l-4.6836567 2.6013747c-.2884099.1589729-.2523587.4393433.078111.62433l4.5244304 2.5117718c.333474.1849866.8351871.2052195 1.123597.0462466" fill="#fff"/><path d="m161.85331 64.7358196-.092262.052387-.467078-.3230533-31.380676-18.2888936c-2.300788-1.34169-5.786569-1.4872095-7.781738-.3259638l-77.5060028 45.3497041c-1.8365941-1.327138-1.9317395-3.1374009-.0922622-4.211335l77.598265-45.4050015c1.995169-1.1612458 5.48095-1.0157262 7.781738.3288742l31.380676 18.2859832c2.303672 1.3446004 2.55451 3.3731425.55934 4.5372987" fill="#0062a9"/><path d="m12.8714185 161.448858c-2.4707454-1.430144-4.4714185-5.265923-4.4714185-8.572233v-15.745976c0-3.303432 2.0006731-4.82278 4.4714185-3.392636l43.8600293 25.213129c2.4678791 1.430144 4.4685522 5.268801 4.4685522 8.569355v15.748854c0 3.303432-2.0006731 4.82278-4.4685522 3.392636z" fill="#0f2862"/><path d="m10.6953686 133.2c-.6868934.654114-1.11906376 1.769277-1.11906376 3.282095v15.767886c0 3.308029 1.99771476 7.152027 4.46194466 8.584162l43.7951744 25.248212c.7927894.458168 1.5254757.584957 2.1665761.475458-.8185479.775139-2.0034389.890401-3.3400189.115262l-43.7951744-25.248213c-2.4670919-1.432134-4.4648067-5.276133-4.4648067-8.584162v-15.767886c0-2.247615.93303012-3.639408 2.2953686-3.872814" fill="#fffffe"/><path d="m42.2206433 171.480639-4.0412866-2.357989c-.5415266-.31731-.9793567-1.164439-.9793567-1.892214v-4.363735c0-.730685.4378301-1.062551.9793567-.748152l4.0412866 2.357989c.5415266.314399.9793567 1.161528.9793567 1.889302v4.366647c0 .727774-.4378301 1.065461-.9793567.748152" fill="#89c434"/><path d="m30.2235238 165.480639-4.0441671-2.357989c-.5386462-.31731-.9793567-1.164439-.9793567-1.892214v-4.363735c0-.730685.4407105-1.062551.9793567-.748152l4.0441671 2.3609c.5386461.311488.9764762 1.158617.9764762 1.886391v4.366647c0 .727774-.4378301 1.065461-.9764762.748152" fill="#fffffe"/><path d="m56.7314478 301.861987-43.8600293-25.210251c-2.4707454-1.433022-4.4714185-5.268801-4.4714185-8.575111v-15.745976c0-3.303432 2.0006731-4.82278 4.4714185-3.392636l43.8600293 25.213129c2.4678791 1.430144 4.4685522 5.268801 4.4685522 8.572233v15.745976c0 3.303432-2.0006731 4.82278-4.4685522 3.392636" fill="#0f2862"/><path d="m10.6953686 248.4c-.6868934.654114-1.11906376 1.769277-1.11906376 3.282095v15.767886c0 3.308029 1.99771476 7.152027 4.46194466 8.584162l43.7951744 25.245331c.7927894.461049 1.5254757.587838 2.1665761.478339-.8185479.775139-2.0034389.890401-3.3400189.115262l-43.7951744-25.248213c-2.4670919-1.432134-4.4648067-5.273251-4.4648067-8.584162v-15.767886c0-2.247615.93303012-3.639408 2.2953686-3.872814" fill="#fffffe"/><path d="m42.2206433 284.280639-4.0412866-2.357989c-.5415266-.31731-.9793567-1.164439-.9793567-1.892214v-4.363735c0-.730685.4378301-1.062551.9793567-.748152l4.0412866 2.3609c.5415266.311488.9793567 1.158617.9793567 1.886391v4.366647c0 .727774-.4378301 1.065461-.9793567.748152" fill="#0062a9"/><path d="m30.2235238 278.280634-4.0441671-2.358094c-.5386462-.317323-.9793567-1.16449-.9793567-1.892297v-4.363928c0-.727806.4407105-1.062597.9793567-.748185l4.0441671 2.361005c.5386461.314412.9764762 1.158668.9764762 1.889385v4.363928c0 .727807-.4378301 1.065509-.9764762.748186" fill="#fffffe"/><path d="m56.7314478 359.461568-43.8600293-25.210251c-2.4707454-1.433022-4.4714185-5.268801-4.4714185-8.572233v-15.748854c0-3.300554 2.0006731-4.82278 4.4714185-3.392636l43.8600293 25.213128c2.4678791 1.430145 4.4685522 5.268802 4.4685522 8.575111v15.743099c0 3.306309-2.0006731 4.82278-4.4685522 3.392636" fill="#0f2862"/><path d="m10.6953686 306c-.6868934.654123-1.11906376 1.769301-1.11906376 3.279258v15.770981c0 3.308074 1.99771476 7.149243 4.46194466 8.581397l43.7951744 25.248555c.7927894.458174 1.5254757.584964 2.1665761.475463-.8185479.778032-2.0034389.893296-3.3400189.115264l-43.7951744-25.245673c-2.4670919-1.432154-4.4648067-5.276205-4.4648067-8.584278v-15.770982c0-2.244764.93303012-3.639457 2.2953686-3.869985" fill="#fffffe"/><path d="m42.2206433 341.88187-4.0412866-2.361005c-.5415266-.314412-.9793567-1.161579-.9793567-1.889385v-4.363928c0-.727807.4378301-1.065509.9793567-.748186l4.0412866 2.358094c.5415266.317323.9793567 1.161579.9793567 1.889385v4.36684c0 .727806-.4378301 1.062597-.9793567.748185" fill="#3b6397"/><path d="m30.2235238 335.881855-4.0441671-2.361309c-.5386462-.314453-.9793567-1.158817-.9793567-1.889629v-4.36449c0-.7279.4407105-1.062735.9793567-.748282l4.0441671 2.358397c.5386461.317365.9764762 1.161729.9764762 1.892541v4.36449c0 .7279-.4378301 1.062735-.9764762.748282" fill="#fffffe"/><path d="m56.7314478 244.261568-43.8600293-25.213129c-2.4707454-1.430144-4.4714185-5.265923-4.4714185-8.569355v-15.748854c0-3.300554 2.0006731-4.82278 4.4714185-3.392636l43.8600293 25.213128c2.4678791 1.430145 4.4685522 5.268802 4.4685522 8.572234v15.745976c0 3.306309-2.0006731 4.82278-4.4685522 3.392636" fill="#0f2862"/><path d="m10.6953686 190.8c-.6868934.656969-1.11906376 1.772088-1.11906376 3.281964v15.77014c0 3.305016 1.99771476 7.148862 4.46194466 8.580939l43.7951744 25.247208c.7927894.458149 1.5254757.584933 2.1665761.475438-.8185479.77799-2.0034389.893247-3.3400189.115258l-43.7951744-25.247208c-2.4670919-1.432078-4.4648067-5.273042-4.4648067-8.580939v-15.77014c0-2.244644.93303012-3.639263 2.2953686-3.87266" fill="#fffffe"/><path d="m42.2206433 229.08186-4.0412866-2.361204c-.5415266-.314439-.9793567-1.161678-.9793567-1.889546v-4.364297c0-.73078.4378301-1.062688.9793567-.748249l4.0412866 2.355382c.5415266.31735.9793567 1.164589.9793567 1.892457v4.367208c0 .727869-.4378301 1.062688-.9793567.748249" fill="#0062a9"/><path d="m30.2235238 223.081855-4.0441671-2.361309c-.5386462-.314453-.9793567-1.161729-.9793567-1.889629v-4.36449c0-.7279.4407105-1.062735.9793567-.748282l4.0441671 2.361309c.5386461.314453.9764762 1.158817.9764762 1.886717v4.367402c0 .7279-.4378301 1.062735-.9764762.748282" fill="#fffffe"/><path d="m198.660542 112.446397c2.285236-1.312312 4.139458-4.831954 4.139458-7.865235v-19.3738614c0-3.0304034-1.854222-4.4261732-4.139458-3.1138618l-102.1239771 58.6597452c-2.2852351 1.312312-4.1365649 4.834832-4.1365649 7.868113v19.370983c0 3.033282 1.8513298 4.426174 4.1365649 3.113862z" fill="#007bd4"/><path d="m96.0533533 165.6c-.739966 0-1.2533533-.681985-1.2533533-1.822446v-14.502202c0-1.533033.9292597-3.312497 2.0793619-3.974423l95.4384081-55.0516321c.295413-.1690634.573617-.2492969.828877-.2492969.737098 0 1.253353.6819846 1.253353 1.8195808v14.5022022c0 1.533033-.92926 3.309631-2.08223 3.974423l-95.4384081 55.054497c-.2925447.169064-.5736171.249297-.8260086.249297" fill="#00b3ef"/><path d="m174.790276 112.550705 14.019448-8.398422c1.098181-.659102 1.990276-2.422565 1.990276-3.945823 0-1.5173984-.892095-2.2175109-1.990276-1.5584092l-14.019448 8.3984212c-1.101004.659102-1.990276 2.422565-1.990276 3.945823 0 1.517399.889272 2.220441 1.990276 1.55841" fill="#fff"/><path d="m160.8 118.340405c0 1.484017 1.076167 2.083332 2.402948 1.341323 1.323833-.742008 2.397052-2.542806 2.397052-4.021115 0-1.484017-1.073219-2.083331-2.397052-1.344177-1.326781.742009-2.402948 2.542806-2.402948 4.023969" fill="#0f2862"/><path d="m152.4 123.141142c0 1.480964 1.076167 2.083051 2.4 1.341143 1.326781-.741909 2.4-2.542464 2.4-4.023427 0-1.480964-1.073219-2.083051-2.4-1.341143-1.323833.741909-2.4 2.542464-2.4 4.023427" fill="#0f2862"/><path d="m145.2 127.940123c0 1.484269 1.076167 2.083686 2.4 1.341551 1.323833-.73928 2.4-2.540383 2.4-4.021797 0-1.484269-1.076167-2.083686-2.4-1.341551-1.323833.73928-2.4 2.543237-2.4 4.021797" fill="#fff"/><path d="m138 131.543112c0 1.478836 1.073219 2.081219 2.402948 1.338946 1.323833-.739418 2.397052-2.540857 2.397052-4.025402 0-1.478836-1.073219-2.078365-2.397052-1.341801-1.329729.742272-2.402948 2.543712-2.402948 4.028257" fill="#0f2862"/><path d="m102.065167 155.837812 4.669666-2.858626c.698216-.429535 1.265167-1.575948 1.265167-2.562396v-5.240321c0-.989411-.566951-1.442644-1.265167-1.016071l-4.669666 2.861588c-.698216.426572-1.265167 1.572985-1.265167 2.559433v5.246246c0 .986448.566951 1.439681 1.265167 1.010147" fill="#0f2862"/><path d="m198.660542 146.046703c2.285236-1.312304 4.139458-4.834806 4.139458-7.865194v-19.376638c0-3.030388-1.854222-4.423272-4.139458-3.110968l-102.1239771 58.656564c-2.2852351 1.315182-4.1365649 4.837684-4.1365649 7.87095v19.370882c0 3.033266 1.8513298 4.42615 4.1365649 3.113846z" fill="#007bd4"/><path d="m94.8 198.577554v-14.505068c0-1.530167.9292597-3.309631 2.0793619-3.971557l95.4384081-55.051632c.295413-.169064.576485-.249297.828877-.249297.737098 0 1.253353.679119 1.253353 1.822446v14.499337c0 1.530167-.92926 3.309631-2.08223 3.974423l-34.328114 19.800477-25.855789 14.914832-35.2545051 20.339188c-.2925447.169064-.5736171.249297-.8260086.249297-.739966 0-1.2533533-.681985-1.2533533-1.822446z" fill="#00b3ef"/><path d="m174.790276 147.351528 14.019448-8.398192c1.098181-.659083 1.990276-2.422499 1.990276-3.945714 0-1.517358-.892095-2.217451-1.990276-1.561297l-14.019448 8.398192c-1.101004.662013-1.990276 2.425429-1.990276 3.948644 0 1.520287.889272 2.217451 1.990276 1.558367" fill="#fff"/><path d="m160.8 153.141142c0 1.480964 1.076167 2.083051 2.402948 1.341143 1.323833-.741909 2.397052-2.542464 2.397052-4.023427 0-1.480964-1.073219-2.083051-2.397052-1.341143-1.326781.741909-2.402948 2.542464-2.402948 4.023427" fill="#fff"/><path d="m152.4 157.939387c0 1.484017 1.076167 2.083331 2.4 1.344177 1.326781-.742009 2.4-2.542806 2.4-4.023969 0-1.484017-1.073219-2.083332-2.4-1.341323-1.323833.742008-2.4 2.542806-2.4 4.021115" fill="#0f2862"/><path d="m145.2 161.542721c0 1.481581 1.076167 2.081065 2.4 1.338847s2.4-2.540669 2.4-4.02225-1.076167-2.081065-2.4-1.344556c-1.323833.742218-2.4 2.546378-2.4 4.027959" fill="#fff"/><path d="m138 166.343176c0 1.478779 1.073219 2.081139 2.402948 1.338895 1.323833-.73939 2.397052-2.540759 2.397052-4.025247 0-1.478779-1.073219-2.081139-2.397052-1.338895-1.329729.73939-2.402948 2.540759-2.402948 4.025247" fill="#0f2862"/><path d="m102.065167 190.639104 4.669666-2.858926c.698216-.42958 1.265167-1.576113 1.265167-2.562665v-5.243834c0-.986552-.566951-1.439832-1.265167-1.013215l-4.669666 2.861889c-.698216.426617-1.265167 1.57315-1.265167 2.559702v5.243834c0 .989514.566951 1.439832 1.265167 1.013215" fill="#0f2862"/><path d="m198.660542 180.848302c2.285236-1.315201 4.139458-4.834873 4.139458-7.86818v-19.371149c0-3.033307-1.854222-4.429089-4.139458-3.113888l-102.1239771 58.657368c-2.2852351 1.312323-4.1365649 4.837751-4.1365649 7.86818v19.374027c0 3.033307 1.8513298 4.423333 4.1365649 3.11101z" fill="#007bd4"/><path d="m94.8 233.377554v-14.502202c0-1.530168.9292597-3.309632 2.0793619-3.971558l95.4384081-55.054497c.295413-.169064.573617-.249297.828877-.249297.737098 0 1.253353.681985 1.253353 1.822446v14.502202c0 1.530168-.92926 3.312497-2.08223 3.974423l-95.4384081 55.051632c-.2925447.169064-.5736171.249297-.8260086.249297-.739966 0-1.2533533-.681985-1.2533533-1.822446z" fill="#00b3ef"/><path d="m174.790276 182.151584 14.019448-8.397972c1.098181-.659067 1.990276-2.425365 1.990276-3.945612s-.892095-2.217393-1.990276-1.561255l-14.019448 8.397972c-1.101004.659066-1.990276 2.428294-1.990276 3.945612 0 1.523176.889272 2.220321 1.990276 1.561255" fill="#fff"/><path d="m160.8 187.941142c0 1.480964 1.076167 2.083051 2.402948 1.341143 1.323833-.741909 2.397052-2.542464 2.397052-4.023427 0-1.480964-1.073219-2.083051-2.397052-1.341143-1.326781.741909-2.402948 2.542464-2.402948 4.023427" fill="#fffffe"/><path d="m152.4 192.740123c0 1.484269 1.076167 2.083686 2.4 1.341551 1.326781-.73928 2.4-2.540383 2.4-4.021797 0-1.484269-1.073219-2.083686-2.4-1.341551-1.323833.73928-2.4 2.543237-2.4 4.021797" fill="#0f2862"/><path d="m145.2 196.343458c0 1.478527 1.076167 2.080785 2.4 1.338667 1.323833-.739264 2.4-2.540327 2.4-4.024563 0-1.478528-1.076167-2.080785-2.4-1.341521-1.323833.742118-2.4 2.543181-2.4 4.027417" fill="#fff"/><path d="m138 201.140682c0 1.481581 1.073219 2.081065 2.402948 1.344556 1.323833-.742218 2.397052-2.546378 2.397052-4.027959s-1.073219-2.081065-2.397052-1.338847c-1.329729.739363-2.402948 2.540669-2.402948 4.02225" fill="#0f2862"/><path d="m102.065167 225.439531 4.669666-2.861993c.698216-.426632 1.265167-1.576169 1.265167-2.562757v-5.24106c0-.986587-.566951-1.439884-1.265167-1.013252l-4.669666 2.861993c-.698216.426632-1.265167 1.573206-1.265167 2.559794v5.244023c0 .986587.566951 1.439884 1.265167 1.013252" fill="#0f2862"/><path d="m96.5365649 274.306129 102.1239771-58.661349c2.285236-1.312347 4.139458-4.832085 4.139458-7.865449v-19.371513c0-3.033364-1.854222-4.426294-4.139458-3.113947l-102.1239771 58.658471c-2.2852351 1.315225-4.1365649 4.834963-4.1365649 7.868327v19.371513c0 3.033364 1.8513298 4.426294 4.1365649 3.113947" fill="#007bd4"/><path d="m96.0533533 266.4c-.739966 0-1.2533533-.681985-1.2533533-1.822446v-14.499337c0-1.535898.9292597-3.312497 2.0793619-3.974423l95.4384081-55.054497c.295413-.169064.573617-.249297.828877-.249297.737098 0 1.253353.681985 1.253353 1.822446v14.499337c0 1.535898-.92926 3.315362-2.08223 3.977288l-95.4384081 55.051632c-.2925447.169064-.5736171.249297-.8260086.249297" fill="#00b3ef"/><path d="m174.790276 215.751583 14.019448-8.398001c1.098181-.656139 1.990276-2.425373 1.990276-3.942695 0-1.523181-.892095-2.22033-1.990276-1.56419l-14.019448 8.40093c-1.101004.656139-1.990276 2.425373-1.990276 3.942695 0 1.523182.889272 2.22033 1.990276 1.561261" fill="#fff"/><path d="m160.8 221.539387c0 1.484017 1.076167 2.083331 2.402948 1.344177 1.323833-.742009 2.397052-2.54566 2.397052-4.023969 0-1.484017-1.073219-2.083332-2.397052-1.341323-1.326781.739154-2.402948 2.542806-2.402948 4.021115" fill="#0f2862"/><path d="m152.4 226.343093c0 1.478853 1.076167 2.081243 2.4 1.338962 1.326781-.742282 2.4-2.540887 2.4-4.022595s-1.073219-2.081243-2.4-1.344671c-1.323833.742281-2.4 2.543741-2.4 4.028304" fill="#0f2862"/><path d="m145.2 231.144083c0 1.479088 1.076167 2.078718 2.4 1.339174s2.4-2.541289 2.4-4.026087c0-1.479088-1.076167-2.081573-2.4-1.339174-1.323833.739543-2.4 2.541289-2.4 4.026087" fill="#fff"/><path d="m138 235.941421c0 1.481833 1.073219 2.081419 2.402948 1.34193 1.323833-.739489 2.397052-2.543957 2.397052-4.02579s-1.073219-2.081419-2.397052-1.339075c-1.329729.739489-2.402948 2.541101-2.402948 4.022935" fill="#0f2862"/><path d="m102.065167 260.239531 4.669666-2.861993c.698216-.429595 1.265167-1.573206 1.265167-2.559794v-5.244023c0-.986587-.566951-1.439884-1.265167-1.013252l-4.669666 2.861993c-.698216.426632-1.265167 1.573206-1.265167 2.559794v5.244023c0 .986587.566951 1.439884 1.265167 1.013252" fill="#fff"/><path d="m96.5365649 309.106129 102.1239771-58.658471c2.285236-1.312347 4.139458-4.834963 4.139458-7.868327v-19.371513c0-3.033364-1.854222-4.426294-4.139458-3.113947l-102.1239771 58.661349c-2.2852351 1.312347-4.1365649 4.832085-4.1365649 7.865449v19.371513c0 3.033364 1.8513298 4.426294 4.1365649 3.113947" fill="#007bd4"/><path d="m96.0533533 301.2c-.739966 0-1.2533533-.681985-1.2533533-1.822446v-14.499337c0-1.533033.9292597-3.315362 2.0793619-3.977288l95.4384081-55.051632c.295413-.169064.573617-.249297.828877-.249297.737098 0 1.253353.681985 1.253353 1.822446v14.499337c0 1.535898-.92926 3.312497-2.08223 3.974423l-95.4384081 55.054497c-.2925447.169064-.5736171.249297-.8260086.249297" fill="#00b3ef"/><path d="m174.790276 250.552004 14.019448-8.401151c1.098181-.656157 1.990276-2.422507 1.990276-3.942799s-.892095-2.217459-1.990276-1.561302l-14.019448 8.401151c-1.101004.656156-1.990276 2.422507-1.990276 3.942799s.889272 2.220388 1.990276 1.561302" fill="#fff"/><path d="m160.8 255.140405c0 1.484017 1.076167 2.083332 2.402948 1.341323 1.323833-.742008 2.397052-2.539952 2.397052-4.021115 0-1.484017-1.073219-2.083331-2.397052-1.344177-1.326781.742009-2.402948 2.54566-2.402948 4.023969" fill="#0f2862"/><path d="m153.6 259.943458c0 1.478527 1.076167 2.080785 2.4 1.338667 1.326781-.739264 2.4-2.540327 2.4-4.024563 0-1.478528-1.073219-2.080785-2.4-1.341521-1.323833.742118-2.4 2.543181-2.4 4.027417" fill="#fffffe"/><path d="m146.4 264.741421c0 1.481833 1.076167 2.081419 2.4 1.34193s2.4-2.543957 2.4-4.02579-1.076167-2.081419-2.4-1.339075c-1.323833.736634-2.4 2.541101-2.4 4.022935" fill="#fff"/><path d="m139.2 267.140796c0 1.481273 1.073219 2.083486 2.402948 1.341422 1.323833-.742063 2.397052-2.542994 2.397052-4.024266 0-1.481273-1.073219-2.080632-2.397052-1.341422-1.329729.742063-2.402948 2.542994-2.402948 4.024266" fill="#fffffe"/><path d="m102.065167 295.039553 4.669666-2.861598c.698216-.429535 1.265167-1.57299 1.265167-2.559441v-5.243299c0-.989414-.566951-1.439686-1.265167-1.016075l-4.669666 2.861598c-.698216.429536-1.265167 1.57299-1.265167 2.559441v5.246262c0 .986451.566951 1.439685 1.265167 1.013112" fill="#fff"/><path d="m96.5365649 343.904868 102.1239771-58.657338c2.285236-1.312322 4.139458-4.837748 4.139458-7.868176v-19.374016c0-3.033305-1.854222-4.42333-4.139458-3.111009l-102.1239771 58.657338c-2.2852351 1.3152-4.1365649 4.83487-4.1365649 7.868176v19.374016c0 3.030427 1.8513298 4.426208 4.1365649 3.111009" fill="#007bd4"/><path d="m96.0533533 336c-.739966 0-1.2533533-.681985-1.2533533-1.822446v-14.502202c0-1.530168.9292597-3.309632 2.0793619-3.974423l95.4384081-55.051632c.295413-.169064.576485-.249297.828877-.249297.737098 0 1.253353.681985 1.253353 1.822446v14.502202c0 1.530168-.92926 3.309632-2.08223 3.971558l-95.4384081 55.054497c-.2925447.169064-.5736171.249297-.8260086.249297" fill="#00b3ef"/><path d="m174.790276 285.353248 14.019448-8.401151c1.098181-.656156 1.990276-2.422507 1.990276-3.942799s-.892095-2.220388-1.990276-1.561302l-14.019448 8.398222c-1.101004.659086-1.990276 2.425436-1.990276 3.945728s.889272 2.217459 1.990276 1.561302" fill="#fff"/><path d="m159.6 291.143458c0 1.478527 1.076167 2.080785 2.402948 1.338667 1.323833-.742118 2.397052-2.540327 2.397052-4.024563 0-1.478528-1.073219-2.080785-2.397052-1.341521-1.326781.742118-2.402948 2.543181-2.402948 4.027417" fill="#0f2862"/><path d="m152.4 295.941421c0 1.481833 1.076167 2.081419 2.4 1.34193 1.326781-.739489 2.4-2.541102 2.4-4.02579 0-1.481833-1.073219-2.081419-2.4-1.339075-1.323833.739489-2.4 2.541101-2.4 4.022935" fill="#0f2862"/><path d="m145.2 300.741702c0 1.481582 1.076167 2.081066 2.4 1.341702 1.323833-.742218 2.4-2.543524 2.4-4.025106s-1.076167-2.081066-2.4-1.341702c-1.323833.742218-2.4 2.543524-2.4 4.025106" fill="#fff"/><path d="m136.8 304.341142c0 1.480964 1.073219 2.083051 2.402948 1.341143 1.323833-.741909 2.397052-2.542464 2.397052-4.023427 0-1.480964-1.073219-2.083051-2.397052-1.341143-1.329729.741909-2.402948 2.542464-2.402948 4.023427" fill="#0f2862"/><path d="m102.065167 329.84086 4.669666-2.861598c.698216-.429536 1.265167-1.57299 1.265167-2.559441v-5.246262c0-.986451-.566951-1.439685-1.265167-1.013112l-4.669666 2.861598c-.698216.429535-1.265167 1.575952-1.265167 2.562403v5.240337c0 .989414.566951 1.439686 1.265167 1.016075" fill="#0f2862"/><path d="m96.5365649 378.706097 102.1239771-58.656564c2.285236-1.315182 4.139458-4.837684 4.139458-7.87095v-19.370882c0-3.033266-1.854222-4.42615-4.139458-3.113846l-102.1239771 58.659442c-2.2852351 1.312304-4.1365649 4.834806-4.1365649 7.865194v19.376638c0 3.030388 1.8513298 4.423272 4.1365649 3.110968" fill="#007bd4"/><path d="m96.0533533 370.8c-.739966 0-1.2533533-.679119-1.2533533-1.822446v-14.499337c0-1.530167.9292597-3.309631 2.0793619-3.974423l95.4384081-55.054497c.295413-.169064.573617-.249297.828877-.249297.737098 0 1.253353.681985 1.253353 1.822446v14.505068c0 1.530167-.92926 3.309631-2.08223 3.971557l-95.4384081 55.051632c-.2925447.169064-.5736171.249297-.8260086.249297" fill="#00b3ef"/><path d="m174.790276 320.153303 14.019448-8.398c1.098181-.659069 1.990276-2.428303 1.990276-3.945625 0-1.523182-.892095-2.22033-1.990276-1.561261l-14.019448 8.398001c-1.101004.656139-1.990276 2.425373-1.990276 3.942695 0 1.523181.889272 2.22033 1.990276 1.56419" fill="#fff"/><path d="m158.4 325.484211c0 2.962347 1.882146 4.162399 4.198634 2.681226 2.321951-1.481173 4.201366-5.084353 4.201366-8.0467 0-2.965369-1.879415-4.165422-4.201366-2.684249-2.316488 1.481174-4.198634 5.087377-4.198634 8.049723" fill="#fffffe"/><path d="m140.4 336.742439c0 1.481833 1.073219 2.081419 2.397052 1.339075 1.329729-.736634 2.402948-2.541101 2.402948-4.022935 0-1.481833-1.073219-2.081419-2.402948-1.34193-1.323833.739489-2.397052 2.543957-2.397052 4.02579" fill="#0f2862"/><path d="m133.2 340.342438c0 1.478528 1.073878 2.080785 2.398525 1.341521 1.327597-.742118 2.401475-2.543181 2.401475-4.027417 0-1.478527-1.073878-2.080785-2.401475-1.338667-1.324647.739264-2.398525 2.540327-2.398525 4.024563" fill="#fff"/><path d="m126 345.139387c0 1.484017 1.073219 2.083331 2.4 1.344177 1.323833-.742009 2.4-2.54566 2.4-4.023969 0-1.484017-1.076167-2.083332-2.4-1.341323-1.326781.742008-2.4 2.542806-2.4 4.021115" fill="#0f2862"/><path d="m102.065167 363.439514 4.669666-2.862283c.698216-.423713 1.265167-1.573367 1.265167-2.560055v-5.244557c0-.986687-.566951-1.44003-1.265167-1.010392l-4.669666 2.859321c-.698216.429639-1.265167 1.57633-1.265167 2.563018v5.241593c0 .986688.566951 1.440031 1.265167 1.013355" fill="#fff"/></g><g transform="translate(304.8 160.8)"><path d="m.62854265 184.058792c0 8.230247 5.15543619 16.456342 15.42702465 23.285475-10.67598171-6.567592-16.0555673-14.658765-16.0555673-22.766544v-20.057723h.62854265zm134.73458635-19.538792h1.076871v20.026588c.016146 9.066763-6.641322 18.133527-19.977056 25.04984-26.6414269 13.818096-71.9161395 9.781668-98.5575665-4.036428-1.7492897-.907091-5.2592527-2.779822-6.7797713-3.755413 1.2178013.745185 6.4250607 6.444696 7.7815112 7.148366 14.427019 7.481731 33.1346362 8.802284 52.0128826 8.180915 15.9829695-.526073 32.250635-1.846625 44.466103-8.180915 13.335734-6.916313 19.995513-15.985152 19.977026-25.04984z" fill="#0f2862"/><path d="m21.9121652 139.913859c13.5494019-7.007314 31.2496963-10.545168 49.0078348-10.648796-18.3226969-.354407-36.8652014 3.048731-50.8542184 10.281953-20.78222807 10.748279-25.55552315 26.897641-13.69285524 39.732984-10.21295419-13.135864-5.03937794-28.723563 15.53923884-39.366141z" fill="#d20f8b"/><path d="m116.465746 139.451229c-7.074906-3.669833-15.332428-6.333523-24.1235136-8.051229 7.8948846 1.72393 15.3024016 4.234104 21.7305646 7.567865 26.631953 13.810109 26.631953 36.198377.00231 50.006412-19.5547366 10.140275-48.0183582 12.803965-72.315107 8.051229 24.7979747 5.416584 54.5065766 2.906409 74.708056-7.567865 26.629644-13.808035 26.629644-36.198377-.00231-50.006412z" fill="#85d3ea"/><path d="m98.8416092 180.558707c-17.0111878 8.855404-44.5920306 8.855404-61.6032184-.002082-17.0111877-8.855404-17.0111877-23.216024 0-32.07351 17.0111878-8.857487 44.5897218-8.857487 61.6032184 0 17.0111878 8.857486 17.0111878 23.218106 0 32.075592z" fill="#7dd2ea"/><path d="m3.24 45.72h49.32v157.32l-43.977-5.746502z" fill="#fff"/><path d="m68.2246027 219.24c-14.7176024 0-29.4375157-2.454871-41.67561-7.360463-.471407-.188836-.9358815-.379747-1.3980451-.576884-.0115541-.00415-.0231082-.010376-.0346623-.014526-1.7700869-.749119-3.4847142-1.552192-5.1346385-2.407143-6.8816172-3.569212-11.9862151-7.711158-15.31379361-12.129096-.34200113-.454452-.66551571-.910979-.97054374-1.371657-.04390555-.066404-.0878111-.132808-.13171664-.199212-2.37783215-3.662592-3.56559281-7.487045-3.56559281-11.311497v-3.714471-14.79563c.27498739 3.367926 1.49047787 6.708874 3.6534039 9.900414 3.25825396 4.95747 8.7025421 9.614047 16.3282429 13.567157 13.3241789 6.908085 30.7801012 10.361091 48.2406451 10.361091 16.8782176 0 33.7610571-3.228892 46.9003701-9.682526.004622-.002075.009244-.006225.011554-.006225.023109-.010376.046217-.022827.067014-.033202.076257-.037353.152514-.07678.228771-.114132.002311 0 .006933-.002075.009243-.00415.344312-.17016.684003-.344471 1.023693-.518781 13.153178-6.820931 19.812957-15.729435 19.977063-24.669067v19.678395c.006895 3.421879-.93823 6.841682-2.835412 10.149429-.268055.468977-.556907.93588-.864246 1.400708-.358177.539532-.739462 1.072839-1.148477 1.60407-.76257.991909-1.615262 1.969292-2.558076 2.927999-.864246.881928-1.80706 1.749329-2.82382 2.598055-2.71059 2.259809-5.959601 4.399261-9.747032 6.362328-1.894871.981533-3.875242 1.896663-5.924938 2.739163-.013865.00415-.025419.0083-.036974.014526-.376663.153559-.753326.305043-1.134611.454452-12.131797 4.768633-26.6368041 7.150875-41.1418113 7.150875z" fill="#0f2862"/><path d="m67.1097017 45.8187645c-2.8087491 0-5.6174982-.0893883-8.4077688-.2681648-14.4964716-.9313011-28.5332878-4.280243-39.6851306-10.0426683-.0438867-.0228667-.0854636-.0436547-.1293503-.0665215-.0277179-.0145516-.053126-.0291031-.0785341-.0415759-.0092393-.0041576-.0138589-.0062364-.0207884-.010394-.0207885-.010394-.0392671-.020788-.0600555-.031182-.0069295-.0041575-.0161688-.0103939-.0230983-.0124727-.0184786-.010394-.0369572-.020788-.0554358-.031182-.0092393-.0041576-.0161688-.0062364-.0230983-.010394-.0184786-.010394-.0369572-.0207879-.0554358-.0291031-.0092393-.0062364-.0207885-.010394-.0300278-.0166304-.0161688-.0083152-.0323375-.0166304-.0508162-.0249456-.0069294-.0041576-.0184786-.010394-.025408-.0145516-.0184787-.0103939-.0346474-.0187091-.0531261-.0291031-.0092393-.0041576-.0161687-.0083152-.025408-.0124728-.0184787-.010394-.0369573-.0187092-.0554359-.0291032-.0046196-.0041575-.0115491-.0062363-.0184786-.0103939-.0207884-.010394-.0415769-.0228668-.0623653-.0332608-.0046197-.0020788-.0092393-.0041576-.013859-.0083152-.0207884-.010394-.0438867-.0228667-.0646751-.0332607-.0046197-.0020788-.0092393-.0041576-.013859-.0083152-.0207884-.010394-.0438867-.0228668-.066985-.0353396-.0023098-.0020788-.0046196-.0020788-.0092393-.0041576-.0230982-.0124727-.0485063-.0270243-.0716046-.0394971-.0023098 0-.0023098 0-.0023098-.0020788-6.9040717-3.7189678-11.93256417-8.0303928-15.08547746-12.6120614.67908901.9562467 1.44364161 1.8958629 2.2936578 2.8209276-6.16954682-7.9701077-6.7146659-16.84033447-1.63535723-24.97050951 3.32615029 4.4257588 8.42855719 8.5750376 15.30722079 12.15056841 1.6492162.8564644 3.3631075 1.6609588 5.1324347 2.4114045 1.6099491 4.2594551 5.5920902 8.3235032 11.9418035 11.622554 8.511711 4.42368 19.6612439 6.6334412 30.8153965 6.6334412 11.1518428 0 22.3036856-2.21184 30.8153965-6.6313624 6.1857158-3.2138201 10.1216598-7.1552192 11.8124528-11.2920253 2.048817-.8439915 4.028338-1.760741 5.922396-2.744012 3.785806-1.9665419 7.033422-4.10978164 9.742848-6.37359156.429628.12888541.926241.2016433 1.439022.2016433.219434 0 .443487-.01247278.66754-.04157594 1.545274-.19124932 2.499233-.99574376 2.13197-1.79815939-.196335-.42823219-.727595-.76707609-1.415924-.96456181.94241-.96040421 1.794736-1.93951759 2.556978-2.93318256 6.308137 11.89279756.468895 25.15967996-17.515415 34.50387246-13.2999811 6.9099212-30.7137637 10.3544878-48.1367857 10.3544878-8.2021942 0-16.4020786-.7629185-24.1792647-2.2866766 8.4655144 1.8522081 17.5061757 2.7793515 26.5422173 2.7793515 2.7925804 0 5.5851607-.0873094 8.3615723-.2640072-.0346474.0041576-.0716047.010394-.1085619.0166304-2.7579329.1746189-5.5320347.2619284-8.3038266.2619284zm60.4620213-36.40389292c-1.062521 0-2.085774.30974075-2.584696.83983402-.695258.7400517-.103943 1.6339344 1.32122 1.9977239.40653.101861.836158.1517522 1.258856.1517522 1.06483 0 2.088083-.3097408 2.587006-.839834.695257-.7400518.103942-1.63393447-1.321221-1.99564514-.40653-.10393985-.836157-.15383098-1.261165-.15383098zm-34.2131519 33.67859012c7.9873799-1.7254015 15.4689089-4.2760855 21.9687609-7.6520518 1.06252-.55296 2.085773-1.1204716 3.06283-1.6983771-.880044.5196992-1.792426 1.0310833-2.741764 1.5299946-.025408.0124728-.048507.0249455-.073915.0394971-.004619.0020788-.004619.0020788-.006929.0041576-.025408.0124728-.048507.0249456-.073915.0374184-.00231.0020787-.004619.0020787-.006929.0041575-.025408.0124728-.048507.0249456-.073915.0374184-.002309.0020788-.002309.0020788-.006929.0041576-.025408.0145516-.053126.0270243-.078534.0415759-6.488303 3.3697299-13.960592 5.9204139-21.9341135 7.6478942-.0115491.0020788-.0207884.0041576-.0346474.0041576z" fill="#007bd4" transform="translate(1.08 154.08)"/><path d="m6.48 179.28c-.86967177-.922796-1.65190372-1.860109-2.34669584-2.814011-2.93986871-4.161916-4.2892779-8.545718-4.05531729-12.915003h-.07798687v-.018664c.20796499-3.558469 1.48411379-7.116938 3.81426696-10.532322.31194748.460361.64280087.916575.99256017 1.370716-5.19676148 8.11024-4.6390372 16.958718 1.67317287 24.909284z" fill="#fff"/><path d="m68.3074266 199.8c-9.0378151 0-18.0802507-.924025-26.5474266-2.770003 7.7787125 1.518633 15.9802062 2.278985 24.1840102 2.278985 17.4264415 0 34.8436418-3.43298 48.1462338-10.31966 17.987839-9.312763 21.782999-21.976526 15.473625-33.829322.408919-.530382 2.835343-1.621331 3.193437-2.16 2.264074 3.412263 3.488522 6.965408 3.675655 10.533056h-.018482c.452815 8.608349-5.119581 17.282996-16.747219 24.175891-.006931.004143-.011552.006215-.018483.010359-.013861.008287-.027723.016574-.041585.024862-.016172.010359-.030033.016574-.046205.026933-.004621.002072-.009241.006215-.013862.008287-.977248.575962-2.000702 1.141565-3.063431 1.692665-6.501128 3.364611-13.984125 5.906715-21.9730725 7.626313-5.7433559 1.23894-11.7500837 2.051087-17.8399816 2.438515-2.7769565.176103-5.5700849.263119-8.3632133.263119z" fill="#007bd4"/><path d="m68.0342725 187.56c-11.1742587 0-22.3438893-2.195636-30.8709432-6.591038-6.361159-3.277963-10.3504781-7.316032-11.9633293-11.548259.01157.004131.0231399.010327.0347099.014458.2128871.555622.3635352-1.025473.6574119-.478113.1943752-.36353 27.7375617 8.378684 42.4753653 8.378684 14.5249164 0 42.3449019-8.356923 42.5022529-8.063621.130557-.243357-.978536 2.493658-3.692593 5.391017-2.192558 2.340639-5.502815 4.880959-8.2719314 6.307899-8.5270538 4.391272-19.6989985 6.588973-30.8709431 6.588973z" fill="#00b3ef"/><path d="m127.799962 160.56c-.513117 0-1.010054-.074722-1.439962-.207087 1.016987-.87318 1.960012-1.765574 2.824452-2.672913.688778.202817 1.220385.550808 1.416848.9906.367502.824078-.587079 1.65029-2.133362 1.846702-.2242.029889-.448399.042698-.667976.042698z" fill="#95cb3f"/><path d="m128.876529 166.68c-.423439 0-.853819-.048067-1.261061-.146203-1.427661-.350487-2.020012-1.211683-1.323536-1.924673.499796-.51071 1.524843-.809124 2.589225-.809124.425753 0 .856133.048067 1.263375.148206 1.427661.348484 2.020012 1.20968 1.323536 1.92267-.499796.51071-1.524843.809124-2.591539.809124z" fill="#fff"/><g fill="#0f2862"><path d="m68.2246027 177.12c-14.7176024 0-29.4375157-2.454871-41.67561-7.360463-.471407-.188836-.9358815-.379747-1.3980451-.576884-.0115541-.00415-.0231082-.010376-.0346623-.014526-1.7700869-.749119-3.4847142-1.552192-5.1346385-2.407143-6.8816172-3.569212-11.9862151-7.711158-15.31379361-12.129096-.34200113-.454452-.66551571-.910979-.97054374-1.371657-.04390555-.066404-.0878111-.132808-.13171664-.199212-2.37783215-3.662592-3.56559281-7.487045-3.56559281-11.311497v-3.714471-14.79563c.27498739 3.367926 14.3855168 19.121889 19.9816468 22.022884 13.3241789 6.908086 23.7578093 10.617695 41.2183532 10.617695 16.8782177 0 21.4582931.153634 34.5976066-6.3.0046216-.002075 19.3342994-2.200668 19.3366094-2.200668.023109-.010376.046217-.022827.067014-.033202.076257-.037353 21.074664-16.366498 21.23877-25.30613v19.678395c.006895 3.421879-.93823 6.841682-2.835412 10.149429-.268055.468977-.556907.93588-.864246 1.400708-.358177.539532-.739462 1.072839-1.148477 1.60407-.76257.991909-1.615262 1.969292-2.558076 2.927999-.864246.881928-1.80706 1.749329-2.82382 2.598055-2.71059 2.259809-5.959601 4.399261-9.747032 6.362328-1.894871.981533-3.875242 1.896663-5.924938 2.739163-.013865.00415-.025419.0083-.036974.014526-.376663.153559-.753326.305043-1.134611.454452-12.131797 4.768633-26.6368041 7.150875-41.1418113 7.150875z"/><path d="m.63419689 141.226918v-19.546918h-.63419689v20.066065c0 8.109074 5.42797927 16.205689 16.2 22.773935-10.36398964-6.829896-15.56580311-15.059413-15.56580311-23.293082z"/><path d="m135.363358 121.68v19.383657c.018482 9.064943-6.639885 18.131961-19.97279 25.050544-26.6380881 13.816409-69.8227486 13.816409-96.458526-.002076-1.3561628-.701614-2.5944989-1.442669-3.812042-2.187875 1.5178858.977694 3.1374261 1.926327 4.8863448 2.833444 26.6380877 13.816408 69.8250585 13.816408 96.4608362 0 13.332905-6.916508 19.988962-15.985602 19.972819-25.050544v-20.02715z"/></g><path d="m67.2885662 45.6008509c-17.4934428 0-34.9822552-3.4580945-48.3315393-10.3763618-7.640069-3.9589364-13.09461518-8.6223764-16.35900828-13.5871527.76632207 1.1305309 1.65071793 2.2444363 2.65550276 3.3334036-6.18382552-7.9677491-6.73020621-16.83742909-1.63914207-24.96312 3.33384828 4.42444909 8.44806409 8.5725 15.34264759 12.1448945 1.6530331.8582891 3.370891 1.6625455 5.1443131 2.4127691 1.6136752 4.2581946 5.6050324 8.32104 11.9694414 11.6191146 8.5314103 4.4202927 19.7067476 6.6314782 30.8867152 6.6314782 11.1776524 0 22.3553048-2.2111855 30.8867151-6.6314782 6.2000313-3.2128691 10.1450853-7.1510237 11.8397913-11.2886837 2.053558-.8437418 4.037661-1.7581418 5.936103-2.7411218 3.794567-1.9680382 7.0497-4.10856543 9.765397-6.37170543.430622.12884728.926069.20158364 1.442352.20158364.219942 0 .444513-.01454727.669085-.04156364 1.54885-.19119272 2.505017-.99544909 2.136904-1.79762727-.19679-.42810545-.729279-.76892727-1.419201-.96427636.944591-.96012 1.798889-1.93894364 2.562896-2.93231455 6.322736 11.88720001.46998 25.15015641-17.555952 34.49366181-13.3307629 6.9057982-30.7848477 10.3514236-48.2481932 10.3514236-8.2211772 0-16.4400393-.7626927-24.2352248-2.286 8.4851069 1.85166 17.5466917 2.7785291 26.6036462 2.7785291 16.8961282 0 33.7806808-3.22326 46.9354908-9.6822491-13.164071 6.4631455-30.0787205 9.6967964-46.9887398 9.6967964zm60.6042678-36.39311999c-1.064979 0-2.0906.30757091-2.590677.83958549-.696867.7398327-.104183 1.6334509 1.324278 1.9950545.407471.1039091.838093.1517073 1.264084.1517073 1.06498 0 2.090601-.3075709 2.590678-.8375073.696867-.7398327.104183-1.63552908-1.324278-1.99713272-.407471-.10183091-.838093-.15170727-1.264085-.15170727z" fill="#007bd4" transform="translate(1.08 111.24)"/><path d="m21.9121652 97.07527c13.5494019-7.0091353 31.2496963-10.5468627 49.0078348-10.6504868-18.3226969-.352322-36.8652014 3.050694-50.8542184 10.2836575-20.78222807 10.7478933-25.55552315 26.8966763-13.69285524 39.7315593-1.12955749-1.452781 3.42379689-2.822275 2.67069478-4.32503-6.0561108-12.084487-5.43406813-25.574535 12.86854406-35.0397z" fill="#007bd4"/><path d="m116.465746 96.6109852c-7.074906-3.667648-15.332428-6.3312566-24.1235136-8.0509852 7.8948846 1.725952 15.3024016 4.233976 21.7305646 7.5697101 26.631953 13.8076159 23.076846 35.2504839-3.552797 49.0580999-15.9486999 8.270084-41.3651841 7.862909-61.2 6.45149-4.4846964-.319125-3.0795014 3.422703-7.56 2.54629 24.7979747 5.416419 54.5065766 2.906321 74.708056-7.567635 26.629644-13.809691 26.629644-36.197279-.00231-50.0069698z" fill="#007bd4"/><path d="m98.8416092 138.076885c-17.0111878 8.857487-44.5920306 8.857487-61.6032184 0-17.0111877-8.857486-17.0111877-23.218106 0-32.075592 17.0111878-8.8554042 44.5897218-8.8554042 61.6032184.002082 17.0111878 8.857486 17.0111878 23.218107 0 32.07351z" fill="#00b3ef"/><path d="m1.44771429 2.98008c-.51608572 0-1.01134286-.0756-1.4418-.20952 1.01828571-.8856 1.96251428-1.78632 2.82805714-2.70432.68965714.20304 1.22194286.55728 1.41865714 1.00224.36797143.83376-.58782857 1.66968-2.13608571 1.8684-.22448572.02808-.44897143.0432-.66882857.0432z" fill="#fff" transform="translate(126.36 114.48)"/><path d="m3.203055 3.31416c-.42228 0-.84915-.04968-1.25307-.15768-1.416015-.37584-2.003535-1.30464-1.31274-2.0736.49572-.55296 1.512405-.87264 2.568105-.87264.42228 0 .84915.05184 1.25307.15768 1.416015.37584 2.003535 1.3068 1.31274 2.07576-.49572.5508-1.512405.87048-2.568105.87048z" fill="#95cb3f" transform="translate(125.64 120.24)"/><path d="m67.1450297 133.2c-17.4627453 0-34.9185581-3.448647-48.2403428-10.348014-1.3564419-.702579-2.5950328-1.44039-3.8128265-2.184419 1.520509.976149 3.1380718 1.921211 4.8873504 2.826895-6.8815741-3.562634-11.98614002-7.699353-15.31369767-12.111715-.34199898-.453878-.66551313-.909829-.97053765-1.369925-2.4124793-3.64139-3.6464486-7.446508-3.69497548-11.2536981.10629698 8.0123011 5.48353772 15.9955881 16.0531549 22.4866711-10.27152348-6.816466-15.42692704-15.029801-15.42692704-23.2472801v-14.4785149c.60543063 2.174057 1.61294115 4.3170264 3.02484234 6.3998932 3.22588229 4.8973276 8.5892582 9.5003596 16.0855061 13.4215378.0808782.043522.1617563.084973.2426345.126423.0439052.022797.0854997.045595.129405.06632 13.3032982 6.851699 30.7013409 10.279621 48.0993837 10.281694h.0254189c17.2154892-.002073 34.4309786-3.357457 47.6765066-10.066154.009243-.004145.018486-.00829.02773-.014507.043905-.020725.08781-.043523.129405-.06632.039283-.018653.080878-.039378.117851-.060103.092432-.045595.182553-.093263.274985-.14093.025419-.012435.053149-.026943.078568-.039378.006932-.004145.016175-.00829.023108-.012435.020797-.010362.036973-.020725.05777-.029015.006932-.004145.013865-.00829.020797-.012435.018486-.010363.039284-.020725.05777-.031088.006933-.002072.013865-.006217.020797-.010362.020798-.010363.036973-.018653.05777-.031088.009244-.004145.016176-.006217.023108-.010362.020798-.010363.039284-.020725.057771-.031088.004621-.002072.011554-.006217.016175-.00829.020797-.012435.043905-.022797.064703-.03316.004621-.004145.009243-.006217.013865-.00829.020797-.010362.043905-.022797.064702-.035232.004622-.002073.006932-.004145.011554-.004145.023108-.014508.046216-.024871.069324-.037306.002311-.002072.004622-.004145.009243-.004145.023108-.014507.046216-.026942.071635-.039377 0 0 .002311-.002073.004622-.002073 9.797809-5.2268554 15.859047-11.6350386 18.176822-18.3230099v13.0754294c.018448 9.0526985-6.641289 18.1053975-19.976938 25.0109815-13.319474 6.897294-30.7799086 10.345941-48.2380323 10.348014z" fill="#0f2862"/><path d="m42.6335966 111.993496-41.99939971-33.513496h-.63419689v20.066065c0 8.109074 5.42797927 16.205689 16.2 22.773935-3.5076952-2.31158 3.4511557-5.167267 2.7177066-7.822722-1.4336317-5.190466 23.71589 3.9432 23.71589-1.503782z" fill="#0f2862"/><path d="m135.363358 78.48v19.3816723c.018482 9.0670607-12.310766 15.9462357-25.643672 22.8627757-26.6380879 13.818549-64.1518666 16.006434-90.787644 2.187885-1.3561628-.703693-2.5944989-1.442675-3.812042-2.187885 1.5201962.977698 3.1374261 1.92426 4.8863448 2.831381 26.6357774 13.818549 69.8250585 13.818549 96.4608362.002076 13.332905-6.91654 19.988962-15.985677 19.972819-25.0506614v-20.0272436z" fill="#0f2862"/><path d="m21.9121652 54.2336396c13.5494019-7.0073531 31.2496963-10.545227 49.0078348-10.6488554-18.3226969-.3523366-36.8652014 3.0508204-50.8542184 10.2840834-20.78222807 10.7483387-25.38891104 26.687422-13.52624314 39.5207643-.31909737-.4103594 3.33479977-.0150566 3.59874354-.321548 1.1675953-1.3558113 3.0311539-2.4641932 2.3404058-4.3651438-4.15076513-11.422976-7.65791527-25.6301495 9.4334774-34.4693005z" fill="#007bd4"/><path d="m6.12 45.72h27v21.6h-27z" fill="#fff"/><path d="m116.465746 53.4110647c-7.074906-3.6676842-15.332428-6.3313191-24.1235136-8.0510647 7.8948846 1.7238945 15.3024016 4.2340178 21.7305646 7.5677104 26.631953 13.8098267 26.631953 36.1976364.00231 50.0074636-19.5547366 10.140068-48.0183582 12.803702-72.315107 8.04899 24.7979747 5.418547 54.5065766 2.908423 74.708056-7.567711 26.629644-13.8077518 26.629644-36.1955616-.00231-50.0053883z" fill="#85d3ea"/><path d="m98.8416092 94.8771523c-17.0111878 8.8571307-44.5920306 8.8571307-61.6032184 0-17.0111877-8.8571303-17.0111877-23.2171743 0-32.0743046 17.0111878-8.8571303 44.5897218-8.8571303 61.6032184 0 17.0111878 8.8571303 17.0111878 23.2171743 0 32.0743046z" fill="#00b3ef"/><path d="m67.1073919 45.7564006c-.0023098 0-.0069295 0-.0115491 0-17.3883746-.0020788-34.7836786-3.440409-48.0790405-10.3129119-.0438867-.0207879-.0854636-.0436547-.1293503-.0665215-.0808439-.0415759-.1616878-.0831519-.2425318-.1268066-7.2343768-3.7958833-12.47306355-8.2299573-15.72298956-12.9509053.67908901.9562467 1.44364161 1.8958629 2.2936578 2.8188488-6.16954682-7.9701077-6.7146659-16.84033448-1.63535723-24.96843072 3.32615029 4.4257588 8.42855719 8.5750376 15.30722079 12.14848962 1.6492162.8585432 3.3631075 1.6609588 5.1324347 2.4134833 1.6099491 4.2573763 5.5920902 8.3214244 11.9418035 11.622554 8.511711 4.4216012 19.6612439 6.6313624 30.8153965 6.6313624 11.1518428 0 22.3036856-2.2097612 30.8153965-6.6313624 6.1857158-3.2138201 10.1216598-7.1531405 11.8124528-11.2920253 2.048817-.8439915 4.028338-1.7586622 5.922396-2.744012 3.785806-1.9665419 7.033422-4.10770285 9.742848-6.37359157.429628.13096421.923931.20164331 1.439022.20164331.219434 0 .443487-.01247279.66754-.03949715 1.545274-.19124932 2.499233-.99574376 2.13197-1.79815939-.196335-.42823218-.727595-.76915489-1.415924-.96456181.94241-.96248301 1.794736-1.93951759 2.556978-2.93318255 6.308137 11.89071876.468895 25.15760116-17.515415 34.50387246-13.2999811 6.9078424-30.7137637 10.3544878-48.1367857 10.3544878-8.2021942 0-16.4020786-.7629185-24.1792647-2.2887555 8.4655144 1.854287 17.5061757 2.7814304 26.5422173 2.7814304 16.8571145 0 33.7026801-3.2242141 46.8271141-9.687194-13.129054 6.4650587-30.0000274 9.6996668-46.8663811 9.7017456-.0046197 0-.0092393 0-.013859 0zm60.4666401-36.40389293c-1.06483 0-2.088083.30766195-2.587005.83775523-.695258.7421305-.103943 1.6360132 1.32122 1.9977239.40653.1039398.836158.1517521 1.261166.1517521 1.06252 0 2.085773-.3076619 2.584696-.8377551.695257-.7421306.103942-1.63601327-1.321221-1.99772395-.40653-.10393985-.836157-.15175218-1.258856-.15175218z" fill="#007bd4" transform="translate(1.08 68.04)"/><path d="m68.3074473 113.76c-9.0378221 0-18.0802648-.924025-26.5474473-2.772075 7.7787186 1.520705-7.3302138-5.925711.8735966-5.925711 17.426455 0 50.5563755 1.983506 63.8589774-4.901102 17.987854-9.3148342 30.496805-19.6408868 24.187426-31.4916107.40892-.530382 1.719283-1.1729038 2.077377-1.7095013 2.264076 3.4122626 3.488525 6.9654079 3.675658 10.5330559h-.018483c.482849 9.1925982-5.90508 18.4639249-19.207682 25.5577851-.00231 0-.00462.002071-.00462.002071-.025413.012431-.048516.024862-.071619.039365-.004621 0-.004621.002072-.009241.004143-.023103.012431-.046206.024862-.069309.037293-.00462 0-.00693.002072-.011551.004143-.020793.012431-.043895.024862-.064688.035221-.006931.002072-.009241.004144-.013862.008287-.020792.010359-.041585.020718-.064688.033149-.00462.002072-.009241.004144-.016171.008287-.018483.01036-.039275.020719-.057758.031078-.00693.002071-.016171.008287-.023102.010359-.018483.010359-.039275.020718-.057757.031077-.006931.004143-.013862.008287-.020793.010359-.018482.010359-.039275.020718-.057757.031077-.006931.004143-.016172.008287-.020793.012431-.018482.008287-.039274.018646-.057757.029005-.00693.004143-.016172.008287-.023102.012431-.025413.012431-.053137.026933-.07855.039364-.092411.047651-.182512.095303-.274923.140883-.039275.020718-.07855.041436-.117825.060082-.043895.02279-.08548.04558-.129376.066298-.009241.006215-.018482.010359-.027723.014502-.157099.078729-.316509.159529-.473608.238258-.00231.002072-.006931.002072-.009241.004144-.076239.037292-.152478.074585-.228718.111877-.020792.012431-.043895.02279-.066998.033149-.00231.002072-.006931.004144-.011551.006215-13.127021 6.441242-29.9759057 9.654611-46.8363417 9.654611z" fill="#007bd4"/><path d="m127.799962 74.16c-.515428 0-1.010054-.0726409-1.439962-.2072404 1.016987-.8738278 1.960012-1.7647477 2.824452-2.6727596.688778.2008309 1.220385.5512166 1.416848.9913353.367502.8246884-.587079 1.6515134-2.133362 1.8480712-.2242.0277745-.448399.0405935-.667976.0405935z" fill="#fff"/><path d="m128.878843 80.28c-.425753 0-.856133-.046096-1.263375-.1463048-1.427661-.3487265-2.020012-1.2105219-1.323536-1.9260125.499796-.5110647 1.524843-.8076827 2.591539-.8076827.423439 0 .853819.046096 1.261061.1463048 1.427661.3487265 2.020012 1.2105219 1.323536 1.9260125-.499796.5110647-1.524843.8076827-2.589225.8076827z" fill="#00b3ef"/><path d="m68.2222963 90.72c-14.7152926 0-29.4352068-2.4580436-41.6733019-7.3720531-.471407-.1890802-.9358815-.3802383-1.3980452-.575552-.0115541-.0062334-.0231082-.0103891-.0346623-.0145447-1.770087-.7521655-3.4847144-1.5541983-5.1346388-2.4123319-6.8816177-3.5717472-11.98621589-7.7190465-15.31379461-12.1426939-.34200115-.4550394-.66551575-.9142343-.9705438-1.3734293-2.46333258-3.7275826-3.69730969-7.6276231-3.69730969-11.5255858v-3.7213492-16.3024601c.02772982 9.0446863 6.68750891 18.0872948 19.9816481 24.9876861 13.3241798 6.9170137 30.7801032 10.3724038 48.2406482 10.3724038 16.8782187 0 33.7610587-3.2330649 46.9003737-9.6950393.004621-.0020778.009243-.0041556.011554-.0062334.023108-.010389.046216-.0228559.067014-.0332449.076257-.0374005.152514-.074801.228771-.1122015.00231-.0020778.006932-.0041556.009243-.0062334.344312-.17038.684002-.3428379 1.023693-.5194513 13.153179-6.8276681 19.812958-15.7497639 19.977055-24.6988712v19.7017495c.006903 3.9125073-1.227074 7.8270924-3.69965 11.5671419-.358176.5381516-.739461 1.0742253-1.148476 1.6061435-.762571.9931909-1.615263 1.9697594-2.558077 2.9317832-.864246.8830672-1.80706 1.749512-2.82382 2.5993344-2.71059 2.2648077-5.959601 4.4049471-9.747032 6.3705509-1.894872.9848797-3.875243 1.899114-5.924939 2.742703-.013865.0041556-.025419.010389-.036973.0145446-.376664.1558354-.753327.3054374-1.134612.4571172-12.1317977 4.7727187-26.6368058 7.1601169-41.1441247 7.1601169z" fill="#0f2862"/><path d="m.63419689 54.8259706v-19.5459706h-.63419689v20.0671688c0 8.1086811 5.42797927 16.2049033 16.2 22.7728312-10.36398964-6.8295652-15.56580311-15.0586826-15.56580311-23.2940294z" fill="#0f2862"/><path d="m135.363358 35.28v19.3830223c.018482 9.0667211-6.639885 18.1334422-19.97279 25.049723-26.6380881 13.8180316-69.8227486 13.8159559-96.458526 0-1.3561628-.7036672-2.5944989-1.4426216-3.812042-2.1878031 1.5178858.9755858 3.1374261 1.9241873 4.8863448 2.8312746 26.6380877 13.8180316 69.8250585 13.8180316 96.4608362.0020757 13.332905-6.9183565 19.988962-15.9850776 19.972819-25.0517987v-20.0264938z" fill="#0f2862"/><path d="m68.3395368 70.92c-17.490529 0-34.9764284-3.4596644-48.323489-10.3852344-13.31696845-6.9089269-19.98818397-15.962721-20.0160478-25.0185955-.02769106-9.0933212 6.64352447-18.1908031 20.013733-25.1288553 13.342431-6.92348963 30.8352748-10.3873148 48.323489-10.3873148 17.490529 0 34.976428 3.46174479 48.323489 10.3873148 8.652673 4.4894502 14.499824 9.8838638 17.541454 15.5965749-3.04163-5.7127111-8.888781-11.1071247-17.541454-15.5965749-7.090192-3.67810389-15.365555-6.349306-24.1756332-8.07393727 7.9119412 1.72879202 15.3354622 4.24604635 21.7775142 7.58920974 26.689492 13.84905953 26.689492 36.30047173.002315 50.14745083-13.328543 6.9151681-30.7797203 10.3623503-48.240157 10.3644307-8.2198079 0-16.437301-.7634978-24.2311881-2.2904934 8.4836935 1.8536145 17.543769 2.7835423 26.599215 2.7835423 16.893314 0 33.7750541-3.2287427 46.9276721-9.6945497-13.161877 6.4699678-30.0737095 9.707032-46.9809122 9.707032zm60.5941742-36.429455c-1.064802 0-2.090253.3078956-2.590247.8383913-.696751.7426941-.104165 1.6372555 1.324058 1.9992409.407403.1019384.837953.1518674 1.263874.1518674 1.064802 0 2.090252-.3078956 2.590246-.8383913.696751-.7426941.104166-1.6372555-1.324058-1.9992409-.407402-.1040187-.837953-.1518674-1.263873-.1518674zm-1.060173-6.2182423c-.219905 0-.444439.0124823-.668973.0416075-1.546278.1893142-2.502285.9964999-2.134234 1.7995248.314811.6865239 1.495353 1.1483673 2.798578 1.1483673.219904 0 .444439-.0124823.668973-.0416075 1.548592-.1893142 2.504599-.9964999 2.136548-1.7995248-.314811-.6865239-1.497667-1.1483673-2.800892-1.1483673zm-3.381903-5.9914813c-.400458 0-.810176.0436878-1.19906.1373047-1.444427.343262-2.080993 1.2295019-1.418964 1.9805175.486105.5492191 1.530074.8716773 2.622653.8716773.400458 0 .807861-.0436879 1.196745-.1352244 1.446742-.3432619 2.080993-1.2315823 1.418964-1.9825978-.48379-.5471388-1.527759-.8716773-2.620338-.8716773zm-5.567063-5.5337988c-.583326 0-1.173596.0936169-1.685164.2850114-1.289337.4826471-1.578685 1.4167357-.645826 2.0866166.562493.4035929 1.444427.6178715 2.337935.6178715.583326 0 1.173597-.0915365 1.685165-.282931 1.287021-.4847275 1.576369-1.4188161.645825-2.0866166-.564808-.4035929-1.444427-.6199519-2.337935-.6199519zm-7.534631-4.8639179c-.773138 0-1.543962.1601889-2.111085.4784864-1.08332.6053892-1.016191 1.5498797.150461 2.1115811.553234.2683684 1.256929.3994321 1.95831.3994321.773138 0 1.543962-.1601889 2.111085-.4784864 1.08332-.6033089 1.016192-1.5498797-.150461-2.1115811-.555549-.266288-1.256929-.3994321-1.95831-.3994321z" fill="#007bd4"/><path d="m21.9120913 10.6736499c13.5494223-7.00735129 31.2497434-10.54522429 49.0079087-10.64885267-18.3227246-.3523365-36.8652571 3.04874703-50.8519814 10.28408077-20.78457317 10.7483358-25.55787545 26.8957105-13.69518965 39.731122-10.2129696-13.1338613-5.03938554-28.7237152 15.53926235-39.3663501z" fill="#007bd4"/><path d="m116.105746 10.5712294c-7.074906-3.66775925-15.332428-6.33144863-24.1235136-8.0512294 7.8948843 1.72392981 15.3024016 4.23410439 21.7305646 7.5678652 26.631953 13.8101092 26.631953 36.198377.00231 50.0064117-19.5547366 10.1402755-49.587933 12.3720165-73.8846819 7.619281 24.7979747 5.4165833 56.0761515 3.3383571 76.2776309-7.1359168 26.629644-13.8080347 26.629644-36.1963025-.00231-50.0064117z" fill="#007bd4"/><path d="m98.8418555 51.3171523c-17.0112442 8.8571303-44.5921783 8.8571303-61.6034224 0s-17.0112441-23.2171743 0-32.0743046 44.5898694-8.8571303 61.6011136 0c17.0135533 8.8571303 17.0135533 23.2171743.0023088 32.0743046z" fill="#00b3ef"/><path d="m37.2219368 31.4250353c17.020656-8.8698787 44.6145398-8.8677937 61.6351958 0 5.5095364 2.8711385 9.2056614 6.3219258 11.1507474 9.9749647 4.058807-7.6313484.362682-16.1488507-11.1507474-22.147591-17.020656-8.8698787-44.6145398-8.8698787-61.6351958 0-11.5134296 5.9987403-15.2095547 14.5162426-11.1484373 22.1455059 1.9427758-3.6509538 5.6389008-7.1017411 11.1484373-9.9728796z" fill="#1fa6d3"/><path d="m37.2196979 27.1200141c17.0219139-8.8664523 44.617837-8.8664523 61.6397509 0 6.5818992 3.4286116 10.5878712 7.6825912 12.0802912 12.1199859 2.370316-7.0406384-1.637966-14.5502359-12.0802912-19.9901608-17.0219139-8.8664523-44.617837-8.8664523-61.6397509 0-10.442325 5.4378406-14.4482966 12.9474381-12.0802915 19.9880765 1.4924208-4.4373946 5.4983924-8.68929 12.0802915-12.1179016z" fill="#22c0ed"/><path d="m37.2297645 23.5466431c17.016411-8.7780099 44.6034128-8.7780099 61.6198237 0 7.5220478 3.8793273 11.7045568 8.8254697 12.5775478 13.8933569 1.103942-6.4008901-3.078566-12.9978101-12.5775478-17.8964926-17.0164109-8.7780099-44.6034127-8.7780099-61.6198237 0-9.4966723 4.8986825-13.6791805 11.493539-12.577548 17.8944291.8729917-5.0678872 5.0578094-10.0119661 12.577548-13.8912934z" fill="#006ab7"/><path d="m103.750926 8.13453066c-1.355739-.41768408-3.13003-.20687183-3.9625815.4708797-.8348264.67775153-.4117264 1.56434514.9417385 1.98005894 1.351191.4176841 3.127756.2068719 3.962582-.4708797.832552-.67578128.411727-1.56237486-.941739-1.98005894z" fill="#85d3ea"/><path d="m111.238843 14.76c-.701281 0-1.404876-.126263-1.958032-.3848017-1.166486-.5411273-1.233606-1.4510229-.150439-2.034238.567042-.3066388 1.337756-.4609603 2.110785-.4609603.701281 0 1.402562.1282672 1.958032.3848017 1.166486.5411273 1.233606 1.4530271.150439 2.034238-.567042.3066388-1.337756.4609603-2.110785.4609603z" fill="#fff"/><path d="m118.804301 19.44c-.893295 0-1.77502-.2064301-2.33738-.5952401-.932637-.6453445-.643358-1.5452192.645673-2.0101879.511446-.1843841 1.101577-.274572 1.684765-.274572.893296 0 1.772706.2084342 2.33738.5972443.930323.6433403.641044 1.543215-.645673 2.0101879-.511446.1843841-1.101577.2725678-1.684765.2725678z" fill="#95cb3f"/><path d="m124.563287 25.2c-1.092097 0-2.135605-.3106472-2.621495-.8397495-.661737-.7235073-.025452-1.577286 1.418338-1.9079749.388712-.0901879.798249-.1322756 1.19853-.1322756 1.092097 0 2.135605.3126514 2.619182.8397495.661736.7235073.027765 1.5792902-1.418338 1.9099791-.388713.0881837-.795935.1302714-1.196217.1302714z" fill="#fff"/><path d="m127.796532 30.96c-1.302831 0-2.483015-.4449269-2.797731-1.1063048-.36794-.7736117.587778-1.5512317 2.133588-1.7336117.224467-.0280584.448933-.0400835.668772-.0400835 1.302831 0 2.485329.4449269 2.800045 1.1063048.36794.7736117-.587778 1.5512317-2.135902 1.7336117-.224467.0280584-.448933.0400835-.668772.0400835z" fill="#fff"/><path d="m128.878843 37.44c-.425753 0-.856133-.0481002-1.263375-.1463048-1.427661-.3487265-2.020012-1.2105219-1.323536-1.9260125.499796-.5110647 1.524843-.8076827 2.589225-.8076827.425753 0 .856133.046096 1.263375.1463048 1.427661.3487265 2.020012 1.2105219 1.323536 1.9260125-.499796.5110647-1.524843.8076827-2.589225.8076827z" fill="#00b3ef"/><path d="m73.8 80.4589809c0 2.0872041-1.9334592 3.7810191-4.3211647 3.7810191-2.3853761 0-4.3188353-1.693815-4.3188353-3.7810191s1.9334592-3.7789809 4.3188353-3.7789809c2.3877055 0 4.3211647 1.6917768 4.3211647 3.7789809z" fill="#00b3ef"/><path d="m69.4788353 82.7607629c-2.1081694 0-3.8576005-1.379346-4.2373039-3.2007629-.0489188.2380381-.0815314.4845777-.0815314.7374932 0 2.1763488 1.9334592 3.9425068 4.3188353 3.9425068s4.3211647-1.766158 4.3211647-3.9425068c0-.2529155-.0326126-.4994551-.0815314-.7374932-.3797034 1.8214169-2.131464 3.2007629-4.2396333 3.2007629z" fill="#006ab7"/><path d="m73.8 123.658981c0 2.089242-1.9334592 3.781019-4.3211647 3.781019-2.3853761 0-4.3188353-1.691777-4.3188353-3.781019 0-2.087204 1.9334592-3.778981 4.3188353-3.778981 2.3877055 0 4.3211647 1.691777 4.3211647 3.778981z" fill="#00b3ef"/><path d="m69.4788353 125.960763c-2.1081694 0-3.8576005-1.379346-4.2373039-3.200763-.0489188.240163-.0815314.484578-.0815314.737493 0 2.178474 1.9334592 3.942507 4.3188353 3.942507s4.3211647-1.764033 4.3211647-3.942507c0-.252915-.0326126-.49733-.0815314-.737493-.3797034 1.821417-2.131464 3.200763-4.2396333 3.200763z" fill="#006ab7"/><path d="m73.8 166.501019c0 2.087204-1.9334592 3.778981-4.3211647 3.778981-2.3853761 0-4.3188353-1.691777-4.3188353-3.778981s1.9334592-3.781019 4.3188353-3.781019c2.3877055 0 4.3211647 1.693815 4.3211647 3.781019z" fill="#00b3ef"/><path d="m69.4788353 169.162888c-2.1081694 0-3.8576005-1.379346-4.2373039-3.202888-.0489188.240163-.0815314.486703-.0815314.739619 0 2.176348 1.9334592 3.940381 4.3188353 3.940381s4.3211647-1.764033 4.3211647-3.940381c0-.252916-.0326126-.499456-.0815314-.739619-.3797034 1.823542-2.131464 3.202888-4.2396333 3.202888z" fill="#006ab7"/><path d="m73.8 209.7c0 2.087767-1.9357886 3.78-4.3211647 3.78s-4.3188353-1.692233-4.3188353-3.78 1.9334592-3.78 4.3188353-3.78 4.3211647 1.692233 4.3211647 3.78z" fill="#7dd2ea"/><path d="m69.4788353 212.002888c-2.1081694 0-3.8576005-1.379346-4.2373039-3.202888-.0512483.240163-.0815314.486703-.0815314.739619 0 2.176348 1.9334592 3.940381 4.3188353 3.940381s4.3211647-1.764033 4.3211647-3.940381c0-.252916-.0326126-.499456-.0815314-.739619-.3797034 1.823542-2.131464 3.202888-4.2396333 3.202888z" fill="#417abe"/><path d="m69.4788353 212.04c-2.1081694 0-3.8576005-1.318248-4.2373039-3.061016-.0512483.229526-.0815314.465145-.0815314.706857 0-2.079947 1.9334592-3.765841 4.3188353-3.765841s4.3211647 1.685894 4.3211647 3.765841c0-.241712-.0326126-.477331-.0815314-.706857-.3797034 1.742768-2.131464 3.061016-4.2396333 3.061016z" fill="#00b3ef"/><path d="m69.4788353 213.48c-2.3853761 0-4.3188353-1.764033-4.3188353-3.940381 0-.252916.0302831-.499456.0815314-.739619.3797034 1.823542 2.1291345 3.202888 4.2373039 3.202888 2.1081693 0 3.8599299-1.379346 4.2396333-3.202888.0489188.240163.0815314.486703.0815314.739619 0 2.176348-1.9357886 3.940381-4.3211647 3.940381z" fill="#006ab7"/></g></g></svg>
