<?xml version="1.0" encoding="UTF-8"?>
<!DOCTYPE svg PUBLIC "-//W3C//DTD SVG 1.1//EN" "http://www.w3.org/Graphics/SVG/1.1/DTD/svg11.dtd">
<svg xmlns="http://www.w3.org/2000/svg" version="1.1" width="320px" height="512px" style="shape-rendering:geometricPrecision; text-rendering:geometricPrecision; image-rendering:optimizeQuality; fill-rule:evenodd; clip-rule:evenodd" xmlns:xlink="http://www.w3.org/1999/xlink">
<g><path style="opacity:1" fill="#fefefe" d="M 48.5,-0.5 C 101.167,-0.5 153.833,-0.5 206.5,-0.5C 217.363,3.71436 223.363,11.7144 224.5,23.5C 210.364,68.5752 196.03,113.575 181.5,158.5C 220.168,158.333 258.835,158.5 297.5,159C 308.28,160.624 315.614,166.457 319.5,176.5C 319.5,181.167 319.5,185.833 319.5,190.5C 260.041,293.405 200.541,396.405 141,499.5C 137.459,505.22 132.626,509.22 126.5,511.5C 121.833,511.5 117.167,511.5 112.5,511.5C 101.636,507.285 95.6363,499.285 94.5,487.5C 109.726,421.196 125.393,355.029 141.5,289C 101.167,288.667 60.8333,288.333 20.5,288C 10.2634,285.921 3.26343,280.088 -0.5,270.5C -0.5,264.833 -0.5,259.167 -0.5,253.5C 10.3055,176.02 20.8055,98.3536 31,20.5C 33.0791,10.2634 38.9124,3.26343 48.5,-0.5 Z"/></g>
</svg>
